<?xml version="1.0" encoding="utf-8"?>
<!-- Generator: Adobe Illustrator 26.0.2, SVG Export Plug-In . SVG Version: 6.00 Build 0)  -->
<svg version="1.1" id="レイヤー_1" xmlns="http://www.w3.org/2000/svg" xmlns:xlink="http://www.w3.org/1999/xlink" x="0px"
	 y="0px" viewBox="0 0 46 46" style="enable-background:new 0 0 46 46;" xml:space="preserve">
<style type="text/css">
	.st0{fill:#FFFFFF;}
</style>
<path id="パス_1547" class="st0" d="M42.5,5.6c-0.2,0-0.2-0.2-0.4-0.2l0,0l-1.2,0.2c-0.5,0-11,2-17.6,8.8h-0.4
	C16.3,7.6,5.8,5.6,5.3,5.6L4.1,5.4l0,0c-0.2,0-0.2,0-0.4,0.2c-0.2,0-0.2,0.2-0.2,0.3v26.3c0,0.2,0.2,0.3,0.5,0.3h0.9
	c0.5,0,1.1,0.1,1.6,0.2c0.1,0,0.2,0.1,0.2,0.2c0,0,0,0,0,0v3c0,0.3,0.2,0.5,0.5,0.5c5.4,0.4,10.8,1.8,15.6,4.3h0.4
	c4.9-2.5,10.2-4,15.6-4.3c0.4,0,0.5-0.2,0.5-0.5v-3c0-0.2,0-0.2,0.2-0.2c0.5-0.1,1.1-0.1,1.6-0.2h0.9c0.3,0,0.5-0.2,0.5-0.5V5.9
	C42.6,5.7,42.6,5.6,42.5,5.6z M24.1,36.3L24.1,36.3c-0.1,0-0.2-0.1-0.2-0.2c0,0,0,0,0,0V17.3l0.4-0.3C28.4,11.9,35.5,10,39.3,9h0.2
	v20.6c0,0.2,0,0.2-0.2,0.2C33.8,31,28.7,33.2,24.1,36.3L24.1,36.3z M6.5,9.2L6.5,9.2L6.7,9l0,0c3.9,1,11,2.6,15.1,7.9l0.4,0.3v18.8
	c0,0.1-0.1,0.2-0.2,0.2c0,0,0,0,0,0h-0.4C17.2,33.1,12,31,6.5,30c-0.1,0-0.2-0.1-0.2-0.2c0,0,0,0,0,0V9.2H6.5z"/>
</svg>
