<?xml version="1.0" encoding="utf-8"?>
<!-- Generator: Adobe Illustrator 26.0.2, SVG Export Plug-In . SVG Version: 6.00 Build 0)  -->
<svg version="1.1" id="レイヤー_1" xmlns="http://www.w3.org/2000/svg" xmlns:xlink="http://www.w3.org/1999/xlink" x="0px"
	 y="0px" viewBox="0 0 46 46" style="enable-background:new 0 0 46 46;" xml:space="preserve">
<style type="text/css">
	.st0{fill:#FFFFFF;}
</style>
<g id="グループ_1689">
	<path id="パス_1702" class="st0" d="M19.2,9.5c-5.4,0-9.7,4.4-9.7,9.7s4.4,9.7,9.7,9.8s9.7-4.4,9.8-9.7c0,0,0,0,0,0
		C29,13.9,24.6,9.5,19.2,9.5L19.2,9.5 M19.2,5.8c7.4,0,13.5,6,13.5,13.5s-6,13.5-13.5,13.5c-7.4,0-13.5-6-13.5-13.5c0,0,0,0,0,0
		C5.8,11.8,11.8,5.8,19.2,5.8C19.2,5.8,19.2,5.8,19.2,5.8"/>
	<path id="パス_1703" class="st0" d="M29.4,30.8v1.6l7.8,7.7l3.1-3.1l-7.7-7.8h-1.6L29.4,30.8z"/>
</g>
</svg>
