<?xml version="1.0" encoding="utf-8"?>
<!-- Generator: Adobe Illustrator 26.0.2, SVG Export Plug-In . SVG Version: 6.00 Build 0)  -->
<svg version="1.1" id="レイヤー_1" xmlns="http://www.w3.org/2000/svg" xmlns:xlink="http://www.w3.org/1999/xlink" x="0px"
	 y="0px" viewBox="0 0 46 46" style="enable-background:new 0 0 46 46;" xml:space="preserve">
<style type="text/css">
	.st0{fill:#FFFFFF;}
</style>
<g id="グループ_749" transform="translate(7.724 5.087)">
	<path id="パス_460" class="st0" d="M14.9,17.4c-4.8,0-8.7-3.9-8.7-8.7c0-4.8,3.9-8.7,8.7-8.7c4.8,0,8.7,3.9,8.7,8.7c0,0,0,0,0,0
		C23.5,13.5,19.6,17.4,14.9,17.4z M14.9,3.3c-3,0-5.4,2.4-5.4,5.4c0,3,2.4,5.4,5.4,5.4c3,0,5.4-2.4,5.4-5.4
		C20.2,5.7,17.9,3.3,14.9,3.3C14.9,3.3,14.9,3.3,14.9,3.3L14.9,3.3z"/>
	<path id="パス_461" class="st0" d="M28,35H1.7C0.7,35,0,34.2,0,33.3l0,0c0-8.2,6.7-14.9,14.9-14.9s14.9,6.7,14.9,14.9
		C29.7,34.2,29,35,28,35C28,35,28,35,28,35z M3.4,31.7h22.9c-0.9-6.3-6.8-10.7-13.1-9.8C8.1,22.7,4.2,26.6,3.4,31.7z"/>
</g>
</svg>
